{"asset":{"version":"2.0","generator":"Blockbench 4.9.4 glTF exporter"},"scenes":[{"nodes":[1],"name":"blockbench_export"}],"scene":0,"nodes":[{"name":"Cube","mesh":0},{"children":[0]}],"bufferViews":[{"buffer":0,"byteOffset":0,"byteLength":4560,"target":34962,"byteStride":12},{"buffer":0,"byteOffset":4560,"byteLength":4560,"target":34962,"byteStride":12},{"buffer":0,"byteOffset":9120,"byteLength":3040,"target":34962,"byteStride":8},{"buffer":0,"byteOffset":12160,"byteLength":1128,"target":34963}],"buffers":[{"byteLength":13288,"uri":"data:application/octet-stream;base64,"}],"accessors":[{"bufferView":0,"componentType":5126,"count":380,"max":[2,1,1],"min":[-1,-1.180482029914856,-5],"type":"VEC3"},{"bufferView":1,"componentType":5126,"count":380,"max":[1,1,1],"min":[-1,-1,-1],"type":"VEC3"},{"bufferView":2,"componentType":5126,"count":380,"max":[0.740770697593689,0.7127230167388916],"min":[0,0],"type":"VEC2"},{"bufferView":3,"componentType":5123,"count":564,"max":[379],"min":[0],"type":"SCALAR"}],"materials":[{"pbrMetallicRoughness":{"metallicFactor":0,"roughnessFactor":1,"baseColorTexture":{"index":0}},"alphaMode":"MASK","alphaCutoff":0.05,"doubleSided":true}],"textures":[{"sampler":0,"source":0}],"samplers":[{"magFilter":9728,"minFilter":9728,"wrapS":33071,"wrapT":33071}],"images":[{"mimeType":"image/png","uri":"data:image/png;base64,"}],"meshes":[{"primitives":[{"mode":4,"attributes":{"POSITION":0,"NORMAL":1,"TEXCOORD_0":2},"indices":3,"material":0}]}]}