{"asset":{"version":"2.0","generator":"Blockbench 4.9.4 glTF exporter"},"scenes":[{"nodes":[1],"name":"blockbench_export"}],"scene":0,"nodes":[{"name":"Cube","mesh":0},{"children":[0]}],"bufferViews":[{"buffer":0,"byteOffset":0,"byteLength":9984,"target":34962,"byteStride":12},{"buffer":0,"byteOffset":9984,"byteLength":9984,"target":34962,"byteStride":12},{"buffer":0,"byteOffset":19968,"byteLength":6656,"target":34962,"byteStride":8},{"buffer":0,"byteOffset":26624,"byteLength":2448,"target":34963}],"buffers":[{"byteLength":29072,"uri":"data:application/octet-stream;base64,"}],"accessors":[{"bufferView":0,"componentType":5126,"count":832,"max":[3.992543935775757,-0.20758800208568573,1.5008870363235474],"min":[-1,-1.1903259754180908,-1],"type":"VEC3"},{"bufferView":1,"componentType":5126,"count":832,"max":[1,1,1],"min":[-1,-1,-1],"type":"VEC3"},{"bufferView":2,"componentType":5126,"count":832,"max":[0.6170623302459717,0.38671875],"min":[0,0],"type":"VEC2"},{"bufferView":3,"componentType":5123,"count":1224,"max":[831],"min":[0],"type":"SCALAR"}],"materials":[{"pbrMetallicRoughness":{"metallicFactor":0,"roughnessFactor":1,"baseColorTexture":{"index":0}},"alphaMode":"MASK","alphaCutoff":0.05,"doubleSided":true}],"textures":[{"sampler":0,"source":0}],"samplers":[{"magFilter":9728,"minFilter":9728,"wrapS":33071,"wrapT":33071}],"images":[{"mimeType":"image/png","uri":"data:image/png;base64,"}],"meshes":[{"primitives":[{"mode":4,"attributes":{"POSITION":0,"NORMAL":1,"TEXCOORD_0":2},"indices":3,"material":0}]}]}