{"asset":{"version":"2.0","generator":"Blockbench 4.9.4 glTF exporter"},"scenes":[{"nodes":[1],"name":"blockbench_export"}],"scene":0,"nodes":[{"name":"Cube","mesh":0},{"children":[0]}],"bufferViews":[{"buffer":0,"byteOffset":0,"byteLength":7872,"target":34962,"byteStride":12},{"buffer":0,"byteOffset":7872,"byteLength":7872,"target":34962,"byteStride":12},{"buffer":0,"byteOffset":15744,"byteLength":5248,"target":34962,"byteStride":8},{"buffer":0,"byteOffset":20992,"byteLength":1944,"target":34963}],"buffers":[{"byteLength":22936,"uri":"data:application/octet-stream;base64,"}],"accessors":[{"bufferView":0,"componentType":5126,"count":656,"max":[1.1512880325317383,3.8125,1],"min":[-1.0787559747695923,-0.1875,-1],"type":"VEC3"},{"bufferView":1,"componentType":5126,"count":656,"max":[1,1,1],"min":[-1,-1,-1],"type":"VEC3"},{"bufferView":2,"componentType":5126,"count":656,"max":[0.5234375,0.5580472946166992],"min":[0,0],"type":"VEC2"},{"bufferView":3,"componentType":5123,"count":972,"max":[655],"min":[0],"type":"SCALAR"}],"materials":[{"pbrMetallicRoughness":{"metallicFactor":0,"roughnessFactor":1,"baseColorTexture":{"index":0}},"alphaMode":"MASK","alphaCutoff":0.05,"doubleSided":true}],"textures":[{"sampler":0,"source":0}],"samplers":[{"magFilter":9728,"minFilter":9728,"wrapS":33071,"wrapT":33071}],"images":[{"mimeType":"image/png","uri":"data:image/png;base64,"}],"meshes":[{"primitives":[{"mode":4,"attributes":{"POSITION":0,"NORMAL":1,"TEXCOORD_0":2},"indices":3,"material":0}]}]}