{"asset":{"version":"2.0","generator":"Blockbench 4.9.4 glTF exporter"},"scenes":[{"nodes":[5],"name":"blockbench_export"}],"scene":0,"nodes":[{"name":"Porta","mesh":0},{"name":"DoorKnob","mesh":1},{"name":"DoorKnobBase","mesh":2},{"name":"DoorKnob_2","mesh":3},{"name":"DoorKnobBase_2","mesh":4},{"children":[0,1,2,3,4]}],"bufferViews":[{"buffer":0,"byteOffset":0,"byteLength":288,"target":34962,"byteStride":12},{"buffer":0,"byteOffset":288,"byteLength":288,"target":34962,"byteStride":12},{"buffer":0,"byteOffset":576,"byteLength":192,"target":34962,"byteStride":8},{"buffer":0,"byteOffset":768,"byteLength":72,"target":34963},{"buffer":0,"byteOffset":840,"byteLength":2880,"target":34962,"byteStride":12},{"buffer":0,"byteOffset":3720,"byteLength":2880,"target":34962,"byteStride":12},{"buffer":0,"byteOffset":6600,"byteLength":1920,"target":34962,"byteStride":8},{"buffer":0,"byteOffset":8520,"byteLength":672,"target":34963},{"buffer":0,"byteOffset":9192,"byteLength":384,"target":34962,"byteStride":12},{"buffer":0,"byteOffset":9576,"byteLength":384,"target":34962,"byteStride":12},{"buffer":0,"byteOffset":9960,"byteLength":256,"target":34962,"byteStride":8},{"buffer":0,"byteOffset":10216,"byteLength":96,"target":34963},{"buffer":0,"byteOffset":10312,"byteLength":2880,"target":34962,"byteStride":12},{"buffer":0,"byteOffset":13192,"byteLength":2880,"target":34962,"byteStride":12},{"buffer":0,"byteOffset":16072,"byteLength":1920,"target":34962,"byteStride":8},{"buffer":0,"byteOffset":17992,"byteLength":672,"target":34963},{"buffer":0,"byteOffset":18664,"byteLength":384,"target":34962,"byteStride":12},{"buffer":0,"byteOffset":19048,"byteLength":384,"target":34962,"byteStride":12},{"buffer":0,"byteOffset":19432,"byteLength":256,"target":34962,"byteStride":8},{"buffer":0,"byteOffset":19688,"byteLength":96,"target":34963}],"buffers":[{"byteLength":19784,"uri":"data:application/octet-stream;base64,"}],"accessors":[{"bufferView":0,"componentType":5126,"count":24,"max":[0.25,1,0.008538000285625458],"min":[-0.25,0,-0.008538000285625458],"type":"VEC3"},{"bufferView":1,"componentType":5126,"count":24,"max":[1,1,1],"min":[-1,-1,-1],"type":"VEC3"},{"bufferView":2,"componentType":5126,"count":24,"max":[0.328125,0.515625],"min":[0,0],"type":"VEC2"},{"bufferView":3,"componentType":5123,"count":36,"max":[23],"min":[0],"type":"SCALAR"},{"bufferView":4,"componentType":5126,"count":240,"max":[0.22227400541305542,0.50040602684021,0.08069700002670288],"min":[0.1708180010318756,0.44894999265670776,0.02924099937081337],"type":"VEC3"},{"bufferView":5,"componentType":5126,"count":240,"max":[0.9086771607398987,0.9775867462158203,0.9086775183677673],"min":[-0.9086686968803406,-0.977608859539032,-0.9086726307868958],"type":"VEC3"},{"bufferView":6,"componentType":5126,"count":240,"max":[0.4375,0.4375],"min":[0,0],"type":"VEC2"},{"bufferView":7,"componentType":5123,"count":336,"max":[239],"min":[0],"type":"SCALAR"},{"bufferView":8,"componentType":5126,"count":32,"max":[0.2029619961977005,0.48314398527145386,0.03556500002741814],"min":[0.18750500679016113,0.4676870107650757,0.0056570000015199184],"type":"VEC3"},{"bufferView":9,"componentType":5126,"count":32,"max":[0.9238602519035339,0.9239199757575989,0],"min":[-0.9238602519035339,-0.9238602519035339,0],"type":"VEC3"},{"bufferView":10,"componentType":5126,"count":32,"max":[0.3125,0.3125],"min":[0,0],"type":"VEC2"},{"bufferView":11,"componentType":5123,"count":48,"max":[31],"min":[0],"type":"SCALAR"},{"bufferView":12,"componentType":5126,"count":240,"max":[0.22227400541305542,0.50040602684021,-0.02924099937081337],"min":[0.1708180010318756,0.44894999265670776,-0.08069700002670288],"type":"VEC3"},{"bufferView":13,"componentType":5126,"count":240,"max":[0.9086771607398987,0.9775867462158203,0.9086775183677673],"min":[-0.9086686968803406,-0.977608859539032,-0.9086726307868958],"type":"VEC3"},{"bufferView":14,"componentType":5126,"count":240,"max":[0.4009885787963867,0.4375],"min":[0,0],"type":"VEC2"},{"bufferView":15,"componentType":5123,"count":336,"max":[239],"min":[0],"type":"SCALAR"},{"bufferView":16,"componentType":5126,"count":32,"max":[0.2029619961977005,0.48314398527145386,-0.0056570000015199184],"min":[0.18750500679016113,0.4676870107650757,-0.03556500002741814],"type":"VEC3"},{"bufferView":17,"componentType":5126,"count":32,"max":[0.9238602519035339,0.9239199757575989,0],"min":[-0.9238602519035339,-0.9238602519035339,0],"type":"VEC3"},{"bufferView":18,"componentType":5126,"count":32,"max":[0.3125,0.3125],"min":[0,0],"type":"VEC2"},{"bufferView":19,"componentType":5123,"count":48,"max":[31],"min":[0],"type":"SCALAR"}],"materials":[{"pbrMetallicRoughness":{"metallicFactor":0,"roughnessFactor":1,"baseColorTexture":{"index":0}},"alphaMode":"MASK","alphaCutoff":0.05,"doubleSided":true},{"pbrMetallicRoughness":{"metallicFactor":0,"roughnessFactor":1,"baseColorTexture":{"index":1}},"alphaMode":"MASK","alphaCutoff":0.05,"doubleSided":true},{"pbrMetallicRoughness":{"metallicFactor":0,"roughnessFactor":1,"baseColorTexture":{"index":2}},"alphaMode":"MASK","alphaCutoff":0.05,"doubleSided":true},{"pbrMetallicRoughness":{"metallicFactor":0,"roughnessFactor":1,"baseColorTexture":{"index":3}},"alphaMode":"MASK","alphaCutoff":0.05,"doubleSided":true},{"pbrMetallicRoughness":{"metallicFactor":0,"roughnessFactor":1,"baseColorTexture":{"index":4}},"alphaMode":"MASK","alphaCutoff":0.05,"doubleSided":true}],"textures":[{"sampler":0,"source":0},{"sampler":1,"source":1},{"sampler":2,"source":2},{"sampler":3,"source":3},{"sampler":4,"source":4}],"samplers":[{"magFilter":9728,"minFilter":9728,"wrapS":33071,"wrapT":33071},{"magFilter":9728,"minFilter":9728,"wrapS":33071,"wrapT":33071},{"magFilter":9728,"minFilter":9728,"wrapS":33071,"wrapT":33071},{"magFilter":9728,"minFilter":9728,"wrapS":33071,"wrapT":33071},{"magFilter":9728,"minFilter":9728,"wrapS":33071,"wrapT":33071}],"images":[{"mimeType":"image/png","uri":"data:image/png;base64,"},{"mimeType":"image/png","uri":"data:image/png;base64,"},{"mimeType":"image/png","uri":"data:image/png;base64,"},{"mimeType":"image/png","uri":"data:image/png;base64,"},{"mimeType":"image/png","uri":"data:image/png;base64,"}],"meshes":[{"primitives":[{"mode":4,"attributes":{"POSITION":0,"NORMAL":1,"TEXCOORD_0":2},"indices":3,"material":0}]},{"primitives":[{"mode":4,"attributes":{"POSITION":4,"NORMAL":5,"TEXCOORD_0":6},"indices":7,"material":1}]},{"primitives":[{"mode":4,"attributes":{"POSITION":8,"NORMAL":9,"TEXCOORD_0":10},"indices":11,"material":2}]},{"primitives":[{"mode":4,"attributes":{"POSITION":12,"NORMAL":13,"TEXCOORD_0":14},"indices":15,"material":3}]},{"primitives":[{"mode":4,"attributes":{"POSITION":16,"NORMAL":17,"TEXCOORD_0":18},"indices":19,"material":4}]}]}