{"asset":{"version":"2.0","generator":"Blockbench 4.9.4 glTF exporter"},"scenes":[{"nodes":[3],"name":"blockbench_export"}],"scene":0,"nodes":[{"name":"Cylinder","mesh":0},{"name":"Cylinder","mesh":1},{"name":"Cylinder","mesh":2},{"children":[0,1,2]}],"bufferViews":[{"buffer":0,"byteOffset":0,"byteLength":672,"target":34962,"byteStride":12},{"buffer":0,"byteOffset":672,"byteLength":672,"target":34962,"byteStride":12},{"buffer":0,"byteOffset":1344,"byteLength":448,"target":34962,"byteStride":8},{"buffer":0,"byteOffset":1792,"byteLength":168,"target":34963},{"buffer":0,"byteOffset":1960,"byteLength":672,"target":34962,"byteStride":12},{"buffer":0,"byteOffset":2632,"byteLength":672,"target":34962,"byteStride":12},{"buffer":0,"byteOffset":3304,"byteLength":448,"target":34962,"byteStride":8},{"buffer":0,"byteOffset":3752,"byteLength":168,"target":34963},{"buffer":0,"byteOffset":3920,"byteLength":672,"target":34962,"byteStride":12},{"buffer":0,"byteOffset":4592,"byteLength":672,"target":34962,"byteStride":12},{"buffer":0,"byteOffset":5264,"byteLength":448,"target":34962,"byteStride":8},{"buffer":0,"byteOffset":5712,"byteLength":168,"target":34963}],"buffers":[{"byteLength":5880,"uri":"data:application/octet-stream;base64,"}],"accessors":[{"bufferView":0,"componentType":5126,"count":56,"max":[0.24661999940872192,0.14036999642848969,0.5614780187606812],"min":[-0.03412000089883804,-0.14036999642848969,-1.393244981765747],"type":"VEC3"},{"bufferView":1,"componentType":5126,"count":56,"max":[0.9238768219947815,0.9238768219947815,1],"min":[-0.9238768219947815,-0.9238768219947815,-1],"type":"VEC3"},{"bufferView":2,"componentType":5126,"count":56,"max":[0.96875,0.8903687596321106],"min":[0,0],"type":"VEC2"},{"bufferView":3,"componentType":5123,"count":84,"max":[55],"min":[0],"type":"SCALAR"},{"bufferView":4,"componentType":5126,"count":56,"max":[-0.034630000591278076,0.14036999642848969,0.5614780187606812],"min":[-0.31536999344825745,-0.14036999642848969,-1.393244981765747],"type":"VEC3"},{"bufferView":5,"componentType":5126,"count":56,"max":[0.9238768219947815,0.9238768219947815,1],"min":[-0.9238768219947815,-0.9238768219947815,-1],"type":"VEC3"},{"bufferView":6,"componentType":5126,"count":56,"max":[0.96875,0.8903687596321106],"min":[0,0],"type":"VEC2"},{"bufferView":7,"componentType":5123,"count":84,"max":[55],"min":[0],"type":"SCALAR"},{"bufferView":8,"componentType":5126,"count":56,"max":[0.10287000238895416,0.3591200113296509,0.5614780187606812],"min":[-0.1778700053691864,0.07838000357151031,-1.393244981765747],"type":"VEC3"},{"bufferView":9,"componentType":5126,"count":56,"max":[0.9238768219947815,0.9238768219947815,1],"min":[-0.9238768219947815,-0.9238768219947815,-1],"type":"VEC3"},{"bufferView":10,"componentType":5126,"count":56,"max":[0.96875,0.8903687596321106],"min":[0,0],"type":"VEC2"},{"bufferView":11,"componentType":5123,"count":84,"max":[55],"min":[0],"type":"SCALAR"}],"materials":[{"pbrMetallicRoughness":{"metallicFactor":0,"roughnessFactor":1,"baseColorTexture":{"index":0}},"alphaMode":"MASK","alphaCutoff":0.05,"doubleSided":true},{"pbrMetallicRoughness":{"metallicFactor":0,"roughnessFactor":1,"baseColorTexture":{"index":1}},"alphaMode":"MASK","alphaCutoff":0.05,"doubleSided":true},{"pbrMetallicRoughness":{"metallicFactor":0,"roughnessFactor":1,"baseColorTexture":{"index":2}},"alphaMode":"MASK","alphaCutoff":0.05,"doubleSided":true}],"textures":[{"sampler":0,"source":0},{"sampler":1,"source":1},{"sampler":2,"source":2}],"samplers":[{"magFilter":9728,"minFilter":9728,"wrapS":33071,"wrapT":33071},{"magFilter":9728,"minFilter":9728,"wrapS":33071,"wrapT":33071},{"magFilter":9728,"minFilter":9728,"wrapS":33071,"wrapT":33071}],"images":[{"mimeType":"image/png","uri":"data:image/png;base64,"},{"mimeType":"image/png","uri":"data:image/png;base64,"},{"mimeType":"image/png","uri":"data:image/png;base64,"}],"meshes":[{"primitives":[{"mode":4,"attributes":{"POSITION":0,"NORMAL":1,"TEXCOORD_0":2},"indices":3,"material":0}]},{"primitives":[{"mode":4,"attributes":{"POSITION":4,"NORMAL":5,"TEXCOORD_0":6},"indices":7,"material":1}]},{"primitives":[{"mode":4,"attributes":{"POSITION":8,"NORMAL":9,"TEXCOORD_0":10},"indices":11,"material":2}]}]}